<svg id="Layer_1" data-name="Layer 1" xmlns="http://www.w3.org/2000/svg" viewBox="0 0 225.12 225.12"><defs><style>.cls-1{fill:#fff;}</style></defs><title>codepen-icon</title><path d="M225.52,37.4V188.6c-.16.73-.37,1.46-.48,2.2a41.09,41.09,0,0,1-31.24,33.61c-1.9.42-3.81.77-5.72,1.15h-150a16.5,16.5,0,0,0-1.81-.45,41,41,0,0,1-34.7-31.54c-.43-1.89-.78-3.79-1.17-5.69V37.64l.69-3.35Q6.4,9.3,30.84,1.87C33,1.22,35.19.91,37.36.44h151.2c.61.15,1.21.35,1.82.44a41,41,0,0,1,34.26,32.33C224.93,34.61,225.23,36,225.52,37.4Zm-23.88,77.32c0-4.12,0-8.24,0-12.35s0-8.08.09-12.12a10.41,10.41,0,0,0-5.07-9.44q-23.53-15.6-47-31.26-14.56-9.7-29.09-19.48A10.21,10.21,0,0,0,114.17,28a11.51,11.51,0,0,0-5.71,2.29Q70.6,55.51,32.73,80.74a10.77,10.77,0,0,0-5.17,9.67c0,4.28.08,8.56.07,12.84q0,17.82-.08,35.63a10.94,10.94,0,0,0,5.31,9.85c7,4.54,13.87,9.16,20.79,13.77L109,199.44c4.16,2.78,7.16,2.77,11.3,0L159,173.62q19-12.68,38-25.31a9.73,9.73,0,0,0,4.69-8.76c0-2.32-.07-4.64-.08-7C201.63,126.64,201.64,120.68,201.64,114.72Z" transform="translate(-0.4 -0.44)"/><path class="cls-1" d="M225.52,225.56H188.08c1.91-.38,3.82-.73,5.72-1.15A41.09,41.09,0,0,0,225,190.8c.11-.74.32-1.47.48-2.2" transform="translate(-0.4 -0.44)"/><path class="cls-1" d="M201.64,114.72c0,6,0,11.92,0,17.88,0,2.31.05,4.63.08,7a9.73,9.73,0,0,1-4.69,8.76q-19,12.62-38,25.31l-38.7,25.82c-4.14,2.77-7.14,2.78-11.3,0L53.65,162.5c-6.92-4.61-13.83-9.23-20.79-13.77a10.94,10.94,0,0,1-5.31-9.85q.07-17.82.08-35.63c0-4.28,0-8.56-.07-12.84a10.77,10.77,0,0,1,5.17-9.67Q70.6,55.53,108.46,30.28A11.51,11.51,0,0,1,114.17,28a10.21,10.21,0,0,1,6.37,2.08q14.53,9.75,29.09,19.48,23.51,15.64,47,31.26a10.41,10.41,0,0,1,5.07,9.44c-.08,4-.07,8.08-.09,12.12S201.64,110.6,201.64,114.72Zm-79.56-65.6v1.61c0,10.08.06,20.15,0,30.23a5.19,5.19,0,0,0,2.49,4.71q14.55,9.72,29,19.51a1.35,1.35,0,0,0,1.8-.06q9.34-6.27,18.74-12.51l6.53-4.4ZM107.24,180.26v-1.5c0-10-.08-20.08,0-30.12a5.55,5.55,0,0,0-2.71-5.08q-14.41-9.62-28.78-19.3a1.41,1.41,0,0,0-1.89,0c-6.49,4.39-13,8.72-19.52,13.08-1.89,1.26-3.77,2.54-5.74,3.87ZM48.65,88.17c.27.21.44.37.64.5C56.94,93.76,64.62,98.82,72.24,104a4.4,4.4,0,0,0,4.63.23,11.22,11.22,0,0,0,1.34-.79Q88.31,96.69,98.38,90c2.09-1.4,4.19-2.8,6.24-4.26,1.38-1,2.57-2.06,2.56-4,0-10.52,0-21,.06-31.56,0-.25,0-.51-.08-.95Zm132,53c-.49-.34-.88-.61-1.28-.87-7.12-4.81-14.26-9.59-21.36-14.41-2.95-2-4.14-2-7,0-7,4.89-13.83,9.9-21.31,14-5.77,3.17-8.48,8.27-7.92,14.84a167.47,167.47,0,0,1,.33,19.53c-.07,1.92,0,3.85,0,6Zm-39.57-26.58c-8.28-5.49-16.33-10.85-24.41-16.15a3.62,3.62,0,0,0-4.27.07c-7.13,4.79-14.3,9.54-21.45,14.3l-2.73,1.84a6.57,6.57,0,0,0,.57.45c7.55,5,15.14,10,22.66,15.08a5.23,5.23,0,0,0,6.34,0q7.92-5.19,15.79-10.46C136.06,118.1,138.48,116.41,141.11,114.61Zm-79.71.06L43,102.39V127ZM186.26,127V102.39L167.9,114.7Z" transform="translate(-0.4 -0.44)"/><path d="M122.08,49.12l58.63,39.09-6.53,4.4q-9.37,6.26-18.74,12.51a1.35,1.35,0,0,1-1.8.06q-14.49-9.8-29-19.51A5.19,5.19,0,0,1,122.1,81c0-10.08,0-20.15,0-30.23Z" transform="translate(-0.4 -0.44)"/><path d="M107.24,180.26,48.6,141.19c2-1.33,3.85-2.61,5.74-3.87,6.51-4.36,13-8.69,19.52-13.08a1.41,1.41,0,0,1,1.89,0q14.37,9.67,28.78,19.3a5.55,5.55,0,0,1,2.71,5.08c-.08,10,0,20.08,0,30.12Z" transform="translate(-0.4 -0.44)"/><path d="M48.65,88.17l58.51-39c0,.44.08.7.08.95,0,10.52-.08,21-.06,31.56,0,2-1.18,3.06-2.56,4-2.05,1.46-4.15,2.86-6.24,4.26Q88.3,96.7,78.21,103.39a11.22,11.22,0,0,1-1.34.79,4.4,4.4,0,0,1-4.63-.23c-7.62-5.13-15.3-10.19-22.95-15.28C49.09,88.54,48.92,88.38,48.65,88.17Z" transform="translate(-0.4 -0.44)"/><path d="M180.68,141.19l-58.59,39.07c0-2.12-.06-4,0-6a167.47,167.47,0,0,0-.33-19.53c-.56-6.57,2.15-11.67,7.92-14.84,7.48-4.11,14.35-9.12,21.31-14,2.9-2,4.09-2,7,0,7.1,4.82,14.24,9.6,21.36,14.41C179.8,140.58,180.19,140.85,180.68,141.19Z" transform="translate(-0.4 -0.44)"/><path d="M141.11,114.61c-2.63,1.8-5.05,3.49-7.5,5.13q-7.87,5.25-15.79,10.46a5.23,5.23,0,0,1-6.34,0c-7.52-5.08-15.11-10.06-22.66-15.08a6.57,6.57,0,0,1-.57-.45L91,112.83c7.15-4.76,14.32-9.51,21.45-14.3a3.62,3.62,0,0,1,4.27-.07C124.78,103.76,132.83,109.12,141.11,114.61Z" transform="translate(-0.4 -0.44)"/><path d="M61.4,114.67,43,127V102.39Z" transform="translate(-0.4 -0.44)"/><path d="M186.26,127,167.9,114.7l18.36-12.31Z" transform="translate(-0.4 -0.44)"/></svg>