<svg id="Layer_1" data-name="Layer 1" xmlns="http://www.w3.org/2000/svg" viewBox="0 0 225.12 225.12"><defs><style>.cls-1{fill:#fff;}</style></defs><title>github-icon</title><path d="M225.28,38.12V187.4c-.24,1.45-.47,2.89-.72,4.34a41.17,41.17,0,0,1-30.88,32.38c-2.24.51-4.53.81-6.8,1.2H38.56c-.93-.15-1.86-.32-2.79-.44a41.11,41.11,0,0,1-34.7-32.45c-.37-1.83-.61-3.67-.91-5.51V38.6c.23-1.49.45-3,.7-4.46C3.52,18,16.7,4.33,32.69,1.14,34.48.79,36.28.51,38.08.2H187.36c.85.15,1.71.32,2.56.43a41.11,41.11,0,0,1,34.13,30.82C224.58,33.64,224.88,35.89,225.28,38.12Z" transform="translate(-0.16 -0.2)"/><path class="cls-1" d="M.16,225.32v-38.4c.3,1.84.54,3.68.91,5.51a41.11,41.11,0,0,0,34.7,32.45c.93.12,1.86.29,2.79.44" transform="translate(-0.16 -0.2)"/><path d="M59.68,1.4H169.36c.29.07.59.16.88.2,3.65.41,7.34.59,10.94,1.28a55.18,55.18,0,0,1,30.38,16.41c8.8,9.25,12.45,20.63,12.49,33.07.13,40.3,0,80.61-.1,120.92a45.94,45.94,0,0,1-2.94,17c-2.25,5.67-5.86,10.61-9.34,15.58a29.53,29.53,0,0,1-4,4.47c-9.2,8.7-20.5,12.6-32.82,13.43-9.28.62-18.62.44-27.93.52-15.59.12-31.18.17-46.77.25-3.36,0-6.72,0-10.08.05-1.42,0-2.84.15-4.26.23H74.56a2.66,2.66,0,0,0-.65-.19c-2.12-.07-4.23-.13-6.35-.17a83.18,83.18,0,0,1-19.12-2.22c-10.06-2.58-19.51-6.77-28.83-11.24A31,31,0,0,1,8.2,202.1c-3.9-5-5.32-10.93-5.59-17.14-.49-11-.87-22-1.3-33a3.52,3.52,0,0,0-.19-.76V129.8a9.08,9.08,0,0,0,.19-1.36q.06-11.7.09-23.4.08-17.1.16-34.19c0-6.91-.27-13.83.08-20.72A45.29,45.29,0,0,1,17,17.78c10.34-9.37,22.7-14,36.37-15.66C55.49,1.87,57.59,1.64,59.68,1.4ZM93.26,173.89c-2.35.14-4.54.25-6.73.4a22.56,22.56,0,0,1-12.11-2.16c-4.47-2.3-7.17-6.12-8.94-10.7A26.38,26.38,0,0,0,56.2,149.2a19.21,19.21,0,0,1-2.4-2.51,5.49,5.49,0,0,1,4.83-1.36,16.26,16.26,0,0,1,10.22,7.38c.72,1.11,1.4,2.24,2.18,3.3,4.94,6.8,12.79,8.91,20.41,5.55a3.41,3.41,0,0,0,2.14-2.51,20.33,20.33,0,0,1,4.54-9.27c.1-.1.12-.27.22-.5-3.51-.75-7-1.41-10.37-2.22-10.84-2.55-18.72-8.72-22.91-19.18a51.17,51.17,0,0,1-3.26-22.23,32.3,32.3,0,0,1,6.54-18.33,4.89,4.89,0,0,0,1-4.56,31.52,31.52,0,0,1,.73-17.61c.66-2.1,1.51-2.62,3.67-2.16,1.6.35,3.2.71,4.76,1.19a48.72,48.72,0,0,1,12.45,6.33,5.05,5.05,0,0,0,3.87.76c4.36-.79,8.71-1.7,13.11-2.14a67.7,67.7,0,0,1,23.06,2,5.58,5.58,0,0,0,4.47-.71c2.46-1.5,4.94-3,7.46-4.35A23.48,23.48,0,0,1,153.5,63c1.09,0,2,.17,2.37,1.36,1.91,6.17,2.69,12.41.84,18.75a4,4,0,0,0,.84,4,25.74,25.74,0,0,1,4.66,8.19,45.1,45.1,0,0,1,.78,26.33c-1.34,5.2-3.1,10.25-6.56,14.51-4.58,5.62-10.64,8.84-17.51,10.68-3.62,1-7.28,1.81-11,2.71a2.76,2.76,0,0,0,.22.48c.23.32.48.64.73.94a14.52,14.52,0,0,1,3.67,8.93c.17,6.88.2,13.75.31,20.63,0,2.71,0,5.44.24,8.14.24,3,2.33,4.31,5.24,3.6a8.76,8.76,0,0,0,1-.31A81.42,81.42,0,0,0,177.12,164c12-16.1,17.17-34.42,17.07-54.34a74.22,74.22,0,0,0-4-23.54,90.39,90.39,0,0,0-23.44-37.27c-10.62-10-23.27-16.16-37.51-19.15a75.65,75.65,0,0,0-29.18-.87A80.14,80.14,0,0,0,54.25,54.14c-13,14.1-20.11,30.75-21.88,49.76a89.83,89.83,0,0,0,2.35,29.26c4.35,18.3,13.35,33.68,28.25,45.4A89.86,89.86,0,0,0,87.17,192c3,1.15,5.5-.32,6-3.46a2.23,2.23,0,0,0,0-.23Z" transform="translate(-0.16 -0.2)"/><path class="cls-1" d="M93.26,173.89v14.43a2.23,2.23,0,0,1,0,.23c-.55,3.14-3,4.61-6,3.46A89.86,89.86,0,0,1,63,178.56c-14.9-11.72-23.9-27.1-28.25-45.4a89.83,89.83,0,0,1-2.35-29.26c1.77-19,8.91-35.66,21.88-49.76a80.14,80.14,0,0,1,45.84-25.31,75.65,75.65,0,0,1,29.18.87c14.24,3,26.89,9.11,37.51,19.15a90.39,90.39,0,0,1,23.44,37.27,74.22,74.22,0,0,1,4,23.54c.1,19.92-5.11,38.24-17.07,54.34a81.42,81.42,0,0,1-37.72,27.94,8.76,8.76,0,0,1-1,.31c-2.91.71-5-.63-5.24-3.6-.23-2.7-.2-5.43-.24-8.14-.11-6.88-.14-13.75-.31-20.63a14.52,14.52,0,0,0-3.67-8.93c-.25-.3-.5-.62-.73-.94a2.76,2.76,0,0,1-.22-.48c3.68-.9,7.34-1.74,11-2.71,6.87-1.84,12.93-5.06,17.51-10.68,3.46-4.26,5.22-9.31,6.56-14.51a45.1,45.1,0,0,0-.78-26.33,25.74,25.74,0,0,0-4.66-8.19,4,4,0,0,1-.84-4c1.85-6.34,1.07-12.58-.84-18.75-.37-1.19-1.28-1.41-2.37-1.36a23.48,23.48,0,0,0-10.59,3.1c-2.52,1.39-5,2.85-7.46,4.35a5.58,5.58,0,0,1-4.47.71,67.7,67.7,0,0,0-23.06-2c-4.4.44-8.75,1.35-13.11,2.14a5.05,5.05,0,0,1-3.87-.76,48.72,48.72,0,0,0-12.45-6.33c-1.56-.48-3.16-.84-4.76-1.19-2.16-.46-3,.06-3.67,2.16a31.52,31.52,0,0,0-.73,17.61,4.89,4.89,0,0,1-1,4.56,32.3,32.3,0,0,0-6.54,18.33,51.17,51.17,0,0,0,3.26,22.23c4.19,10.46,12.07,16.63,22.91,19.18,3.42.81,6.86,1.47,10.37,2.22-.1.23-.12.4-.22.5a20.33,20.33,0,0,0-4.54,9.27,3.41,3.41,0,0,1-2.14,2.51C83.82,164.92,76,162.81,71,156c-.78-1.06-1.46-2.19-2.18-3.3a16.26,16.26,0,0,0-10.22-7.38,5.49,5.49,0,0,0-4.83,1.36,19.21,19.21,0,0,0,2.4,2.51,26.38,26.38,0,0,1,9.28,12.23c1.77,4.58,4.47,8.4,8.94,10.7a22.56,22.56,0,0,0,12.11,2.16C88.72,174.14,90.91,174,93.26,173.89Z" transform="translate(-0.16 -0.2)"/></svg>