<?xml version="1.0" encoding="utf-8"?>
<!-- Generator: Adobe Illustrator 23.0.1, SVG Export Plug-In . SVG Version: 6.00 Build 0)  -->
<svg version="1.1" id="Layer_1" xmlns="http://www.w3.org/2000/svg" xmlns:xlink="http://www.w3.org/1999/xlink" x="0px" y="0px"
	 viewBox="0 0 225 225" style="enable-background:new 0 0 225 225;" xml:space="preserve">
<style type="text/css">
	.st0{display:none;}
	.st1{display:inline;}
	.st2{display:inline;fill:#FFFFFF;}
	.st3{fill:#FFFFFF;}
</style>
<g class="st0">
	<path class="st1" d="M59.68,1.4c36.56,0,73.12,0,109.68,0c0.29,0.07,0.59,0.16,0.88,0.2c3.65,0.42,7.34,0.6,10.94,1.28
		c11.84,2.25,22.05,7.66,30.38,16.42c8.79,9.24,12.45,20.63,12.49,33.06c0.13,40.31-0.03,80.62-0.1,120.92
		c-0.01,5.83-0.78,11.6-2.94,17.03c-2.25,5.67-5.86,10.61-9.34,15.58c-1.13,1.63-2.53,3.1-3.98,4.47
		c-9.2,8.69-20.5,12.59-32.82,13.42c-9.28,0.63-18.62,0.44-27.93,0.52c-15.59,0.13-31.18,0.17-46.78,0.25
		c-3.36,0.02-6.72,0.01-10.08,0.05c-1.42,0.02-2.84,0.15-4.26,0.23c-3.76,0-7.52,0-11.28,0c-0.22-0.07-0.43-0.18-0.65-0.19
		c-2.12-0.07-4.23-0.13-6.35-0.17c-6.44-0.12-12.85-0.62-19.11-2.22c-10.06-2.58-19.51-6.77-28.83-11.24
		c-4.43-2.12-8.37-4.98-11.42-8.92c-3.9-5.05-5.32-10.93-5.59-17.14c-0.48-11.01-0.86-22.02-1.29-33.04
		c-0.01-0.26-0.13-0.51-0.19-0.76c0-7.12,0-14.24,0-21.36c0.07-0.45,0.19-0.91,0.19-1.36c0.04-7.8,0.06-15.6,0.09-23.4
		c0.05-11.4,0.12-22.79,0.16-34.19c0.02-6.91-0.27-13.83,0.08-20.73c0.65-12.84,5.82-23.67,15.39-32.35
		C27.37,8.41,39.73,3.75,53.4,2.12C55.49,1.87,57.59,1.64,59.68,1.4z M93.26,173.89c-2.34,0.14-4.54,0.25-6.73,0.4
		c-4.22,0.29-8.31-0.19-12.11-2.16c-4.47-2.3-7.17-6.12-8.94-10.7c-1.92-4.97-4.92-9.1-9.28-12.23c-0.91-0.65-1.58-1.63-2.4-2.51
		c1.57-1.19,3-1.77,4.83-1.36c4.49,1.01,7.74,3.63,10.22,7.38c0.73,1.1,1.41,2.24,2.18,3.3c4.95,6.79,12.8,8.91,20.41,5.55
		c1.14-0.5,1.85-1.26,2.14-2.51c0.8-3.42,2.14-6.61,4.54-9.26c0.09-0.1,0.12-0.27,0.22-0.51c-3.51-0.75-6.96-1.41-10.37-2.22
		c-10.84-2.55-18.72-8.73-22.91-19.18c-2.86-7.13-3.69-14.6-3.26-22.23c0.38-6.75,2.4-12.95,6.54-18.34c1.13-1.47,1.43-2.86,1-4.56
		c-1.52-5.94-1.11-11.8,0.72-17.61c0.66-2.1,1.51-2.63,3.67-2.16c1.6,0.35,3.2,0.71,4.76,1.18c4.52,1.36,8.53,3.77,12.45,6.33
		c1.2,0.78,2.42,1.02,3.86,0.76c4.36-0.79,8.71-1.7,13.11-2.14c7.78-0.78,15.48,0.14,23.06,2.03c1.59,0.4,3.06,0.15,4.48-0.72
		c2.45-1.5,4.94-2.95,7.45-4.35c3.29-1.82,6.8-2.96,10.6-3.1c1.09-0.04,2,0.18,2.37,1.36c1.91,6.18,2.69,12.41,0.84,18.75
		c-0.44,1.52-0.17,2.79,0.84,4c2.04,2.45,3.63,5.17,4.66,8.19c2.98,8.69,3.04,17.49,0.78,26.33c-1.33,5.21-3.1,10.25-6.56,14.51
		c-4.57,5.62-10.63,8.84-17.5,10.68c-3.62,0.97-7.28,1.81-10.96,2.72c0.08,0.19,0.12,0.35,0.21,0.48c0.23,0.32,0.48,0.64,0.74,0.94
		c2.14,2.6,3.58,5.53,3.67,8.93c0.17,6.87,0.2,13.75,0.31,20.62c0.04,2.72,0.02,5.44,0.24,8.14c0.25,2.97,2.34,4.31,5.24,3.6
		c0.35-0.09,0.7-0.18,1.03-0.31c15.25-5.7,27.99-14.86,37.71-27.95c11.96-16.1,17.18-34.42,17.07-54.34
		c-0.04-8.05-1.38-15.92-3.97-23.54c-4.85-14.28-12.45-26.86-23.44-37.27c-10.61-10.05-23.27-16.16-37.51-19.15
		c-9.68-2.03-19.41-2.63-29.18-0.87C81.97,32.1,66.71,40.6,54.25,54.14C41.28,68.24,34.14,84.89,32.37,103.9
		c-0.92,9.88,0.07,19.62,2.35,29.26c4.34,18.3,13.35,33.67,28.24,45.39c7.35,5.78,15.47,10.17,24.2,13.46
		c3.03,1.14,5.5-0.32,6.05-3.46c0.01-0.08,0.04-0.16,0.04-0.24C93.26,183.56,93.26,178.81,93.26,173.89z"/>
	<path class="st2" d="M93.26,173.89c0,4.92,0,9.68,0,14.43c0,0.08-0.02,0.16-0.04,0.24c-0.55,3.14-3.02,4.6-6.05,3.46
		c-8.73-3.29-16.86-7.68-24.2-13.46c-14.9-11.72-23.9-27.1-28.24-45.39c-2.29-9.64-3.27-19.38-2.35-29.26
		c1.77-19.01,8.92-35.66,21.88-49.75C66.71,40.6,81.97,32.1,100.09,28.83c9.77-1.76,19.5-1.16,29.18,0.87
		c14.24,2.99,26.9,9.1,37.51,19.15c10.99,10.41,18.6,22.99,23.44,37.27c2.59,7.62,3.92,15.49,3.97,23.54
		c0.11,19.92-5.11,38.24-17.07,54.34c-9.72,13.09-22.47,22.24-37.71,27.95c-0.34,0.13-0.68,0.22-1.03,0.31
		c-2.91,0.71-5-0.63-5.24-3.6c-0.22-2.7-0.2-5.43-0.24-8.14c-0.11-6.87-0.14-13.75-0.31-20.62c-0.08-3.4-1.53-6.33-3.67-8.93
		c-0.25-0.31-0.5-0.62-0.74-0.94c-0.09-0.12-0.13-0.28-0.21-0.48c3.68-0.91,7.34-1.75,10.96-2.72c6.87-1.84,12.93-5.06,17.5-10.68
		c3.46-4.26,5.23-9.3,6.56-14.51c2.26-8.84,2.2-17.64-0.78-26.33c-1.03-3.02-2.62-5.74-4.66-8.19c-1.01-1.22-1.28-2.48-0.84-4
		c1.85-6.34,1.07-12.57-0.84-18.75c-0.37-1.18-1.28-1.4-2.37-1.36c-3.79,0.15-7.31,1.28-10.6,3.1c-2.52,1.39-5,2.85-7.45,4.35
		c-1.42,0.87-2.89,1.11-4.48,0.72c-7.58-1.89-15.27-2.8-23.06-2.03c-4.4,0.44-8.75,1.35-13.11,2.14c-1.44,0.26-2.67,0.02-3.86-0.76
		c-3.92-2.56-7.93-4.97-12.45-6.33c-1.56-0.47-3.16-0.84-4.76-1.18c-2.16-0.47-3.01,0.05-3.67,2.16c-1.83,5.8-2.24,11.67-0.72,17.61
		c0.43,1.69,0.13,3.09-1,4.56c-4.14,5.38-6.16,11.58-6.54,18.34c-0.43,7.63,0.41,15.1,3.26,22.23
		c4.19,10.46,12.07,16.63,22.91,19.18c3.42,0.81,6.86,1.47,10.37,2.22c-0.1,0.24-0.13,0.4-0.22,0.51c-2.4,2.66-3.74,5.84-4.54,9.26
		c-0.3,1.26-1,2.01-2.14,2.51c-7.61,3.36-15.46,1.24-20.41-5.55c-0.78-1.06-1.45-2.2-2.18-3.3c-2.47-3.75-5.73-6.38-10.22-7.38
		c-1.84-0.41-3.27,0.17-4.83,1.36c0.83,0.88,1.5,1.86,2.4,2.51c4.36,3.14,7.36,7.26,9.28,12.23c1.77,4.58,4.46,8.39,8.94,10.7
		c3.81,1.96,7.89,2.44,12.11,2.16C88.72,174.14,90.91,174.03,93.26,173.89z"/>
</g>
<g>
	<path d="M0.16,197c0-56.24,0-112.48,0-168.72c0.07-0.21,0.19-0.42,0.21-0.64C1.69,14.8,10.89,4.21,23.45,1.12
		C24.95,0.75,26.48,0.5,28,0.2c56.48,0,112.96,0,169.44,0c0.26,0.07,0.52,0.18,0.78,0.22c12.46,1.85,20.96,8.65,25.34,20.45
		c0.85,2.29,1.16,4.78,1.71,7.18c0,56.48,0,112.96,0,169.44c-0.07,0.22-0.18,0.44-0.21,0.66c-1.57,12.94-10.59,23.15-23.23,26.26
		c-1.53,0.38-3.1,0.61-4.64,0.91c-56.24,0-112.48,0-168.72,0c-0.26-0.07-0.52-0.19-0.78-0.21c-12.42-1.19-23.08-10.14-26.33-22.17
		C0.84,200.99,0.55,198.98,0.16,197z M24.01,41.24c-4.67,4.04-7.77,8.92-8.21,15.11c-0.32,4.42-0.23,8.87-0.23,13.31
		c0.01,29.12,0.04,58.24,0.07,87.35c0,0.08,0,0.16,0,0.24c0.21,6.33,2.52,11.75,7.12,16.12c4.62,4.38,10.22,6.17,16.52,6.17
		c19.64-0.03,39.28-0.01,58.92-0.01c30.12,0,60.24-0.08,90.36,0.04c10.86,0.05,20.2-7.42,22.49-16.75
		c0.82-3.34,0.81-6.72,0.81-10.13c-0.02-31.32,0-62.64-0.02-93.96c-0.01-6.63-2.62-12.16-7.44-16.69c-0.73-0.69-1.21-0.65-2.03-0.14
		c-29.08,18.54-58.18,37.05-87.26,55.59c-0.97,0.62-1.67,0.68-2.68,0.03c-25.57-16.32-51.16-32.6-76.75-48.88
		C31.8,46.19,27.92,43.73,24.01,41.24z"/>
	<path class="st3" d="M24.01,41.24c3.91,2.49,7.79,4.95,11.66,7.41c25.59,16.29,51.18,32.57,76.75,48.88
		c1.01,0.64,1.7,0.59,2.68-0.03c29.08-18.54,58.18-37.05,87.26-55.59c0.81-0.52,1.3-0.55,2.03,0.14c4.82,4.53,7.44,10.06,7.44,16.69
		c0.03,31.32,0,62.64,0.02,93.96c0,3.4,0.01,6.78-0.81,10.13c-2.28,9.33-11.63,16.79-22.49,16.75c-30.12-0.13-60.24-0.04-90.36-0.04
		c-19.64,0-39.28-0.02-58.92,0.01c-6.3,0.01-11.9-1.78-16.52-6.17c-4.6-4.37-6.91-9.79-7.12-16.12c0-0.08,0-0.16,0-0.24
		c-0.03-29.12-0.06-58.24-0.07-87.35c0-4.44-0.08-8.89,0.23-13.31C16.24,50.16,19.34,45.28,24.01,41.24z M189,164.25
		c0-29.02,0-57.97,0-87.07c-0.53,0.31-0.93,0.54-1.33,0.8c-24.2,15.41-48.4,30.81-72.58,46.24c-0.99,0.63-1.71,0.64-2.7,0.01
		C88.1,108.73,63.8,93.26,39.5,77.79c-0.32-0.21-0.67-0.38-1.11-0.63c0,29.1,0,58.07,0,87.09C88.61,164.25,138.77,164.25,189,164.25
		z"/>
	<path d="M189,164.25c-50.22,0-100.39,0-150.61,0c0-29.03,0-57.99,0-87.09c0.45,0.25,0.79,0.42,1.11,0.63
		c24.3,15.47,48.6,30.94,72.88,46.43c0.99,0.63,1.72,0.62,2.7-0.01c24.18-15.43,48.38-30.83,72.58-46.24c0.4-0.25,0.8-0.48,1.33-0.8
		C189,106.28,189,135.23,189,164.25z"/>
</g>
</svg>
