<svg id="Layer_1" data-name="Layer 1" xmlns="http://www.w3.org/2000/svg" viewBox="0 0 225.12 225.12"><defs><style>.cls-1{fill:#fff;}</style></defs><title>hack1nslash-icon</title><path d="M188.8,225.8h-151a17.28,17.28,0,0,0-1.71-.46c-16.84-2.91-28.06-12.45-33.54-28.63-.87-2.55-1.31-5.24-1.95-7.87V37.16c.24-1,.5-1.92.71-2.89C5.17,16.77,15.91,6,33.17,1.54,34.4,1.22,35.64,1,36.88.68H189.52a12.6,12.6,0,0,0,1.44.45c17.1,3.22,28.18,13.19,33.33,29.77.61,2,1,4,1.47,6v152.4a16.49,16.49,0,0,0-.51,1.79,41.06,41.06,0,0,1-31.47,33.54C192.12,225,190.46,225.42,188.8,225.8ZM15.17,44.77a5,5,0,0,1-.09-.6c0-7,0-14,0-21a8.39,8.39,0,0,1,8.47-8.33H83.43A8.93,8.93,0,0,1,85,15c4.37.86,7,4.22,7,9.13q0,14.16,0,28.32c0,.39,0,.78-.06,1.29h-10L81.56,55a18.81,18.81,0,0,0-3.77-1.47,14.15,14.15,0,0,0-13.11,4.61c-5.74,6.14-8,13.6-8,21.84,0,2.92.58,5.76,2.67,8a10.57,10.57,0,0,0,14.17.9c1.28-1,2.41-2.21,3.58-3.3,1.76,6.34,8.41,6.95,14.53,3.46.69.56,2.75.71,5.21.37L97,87.61c3.75,3.59,8.15,3.91,12.76,3.18s8.45-3.18,11.91-6.7c-.49,2.36-.92,4.41-1.36,6.54h11.33l.41-1.21h3.6V87.86c0-4.76,0-9.52,0-14.28,0-.44.08-1.08.37-1.29a14.81,14.81,0,0,1,3.29-1.9c1.74-.63,2.78.1,3,1.94a7.67,7.67,0,0,1,0,2.14c-.37,2.49-.93,5-1.18,7.45a7.81,7.81,0,0,0,6.56,8.89,16.1,16.1,0,0,0,2.5.3c4,.17,8.1-4.39,7.54-8.47-.34.08-.67.18-1,.24-3.29.59-4.76-.11-3.93-3.63,0-.16.09-.31.11-.47a57.51,57.51,0,0,0,1-7.32,7.76,7.76,0,0,0-7.37-8.09l-1.15-.11,13.44-9.34a81.5,81.5,0,0,0-8.23-.21,2,2,0,0,0-1,.49c-1.58,1.22-3.15,2.47-4.72,3.71l-7.46,5.87c1.77-8.35,3.48-16.4,5.23-24.61l-7,.89V24.76c0-5.37,3.6-9,9-9q29.46,0,58.92,0a10.93,10.93,0,0,1,3,.4c3.8,1.09,6.06,4.39,6.06,8.77q0,28.32,0,56.64c0,.2.08.45,0,.59-.21.3-.47.73-.76.78-2.58.41-3.66-.5-3.27-3.06.43-2.84,1.14-5.63,1.78-8.43.77-3.35,1.69-6.67,1.58-10.15-.13-3.91-2.1-6.73-5.44-7.6a11,11,0,0,0-9.19,1.44l-1.36.92.42-2.38H184.9Q181,72.16,177.08,90.61H188.5c1.15-5.44,2.27-10.84,3.45-16.22.65-3,1.26-6,2.19-8.94a11.94,11.94,0,0,1,2.46-3.75,2.38,2.38,0,0,1,2.76-.62,2.18,2.18,0,0,1,1.23,2.16,6.19,6.19,0,0,1,0,1.55c-.5,2.79-1.08,5.56-1.56,8.35a88.38,88.38,0,0,0-1.52,9.92,7.23,7.23,0,0,0,3.7,7.17,9,9,0,0,0,10.11-1.59c.35-.36.66-.76,1.06-1.21a2,2,0,0,1,.13.42c0,12.6.07,25.2,0,37.8,0,5-3.81,8.47-8.84,8.47h-22c-.51,0-1-.13-1.54-.14-1.94,0-3.88,0-5.82,0-1.33,0-2.66.11-4.13.18l3.14-14.69c-.46,0-.73,0-1,.06-3.24.44-6.48.93-9.74,1.32-.79.1-1,.39-1.2,1.14q-3,14.13-6,28.25c-.29,1.37-.62,2.73-.93,4.1l-.19,0v-51c0-5.24-3.57-8.83-8.79-8.83H86.33c-5.3,0-8.88,3.57-8.89,8.88,0,4.6,0,9.2,0,13.8A22.29,22.29,0,0,1,77,122c-2.41,10.75-4.67,21.54-7,32.32-.66,3.08-1.45,6.15-1.21,9.35.31,4.17,2.65,6.94,6.53,7.62.65.12,1.33.12,2.12.19v1.46c0,10.28,0,20.56,0,30.84a10.4,10.4,0,0,0,.85,4.17c1.66,3.6,4.77,4.91,8.6,4.91q18.84,0,37.68,0c6.76,0,13.52-.07,20.28,0,6.42.09,9.54-4.69,9.45-9.4-.19-10.35-.06-20.72-.06-31.08v-1.48h8.07c.11-.37.2-.63.26-.9,1.62-7.58,3.15-15.17,4.89-22.72a15.25,15.25,0,0,1,2.26-4.55,2.86,2.86,0,0,1,3.44-1.34c1.46.52,1.43,2,1.36,3.16a39.76,39.76,0,0,1-.76,5c-.78,4-1.86,8-2.36,12.1-.62,5.12,1.58,10.42,8.75,9.74a8.16,8.16,0,0,0,7.32-8.74c-.3.16-.56.33-.85.46-2.64,1.2-4.57,0-4.3-2.87a43.86,43.86,0,0,1,1.06-5.39c1.15-5.12,3-10.14,2-15.67h1.38c5.72,0,11.44,0,17.16,0a13.33,13.33,0,0,0,13.42-12.66c0-.44.07-.87.07-1.31q0-50.16,0-100.32c0-8.07-5.66-14-13.59-14q-29.82-.09-59.64,0c-7.84,0-13.55,5.91-13.55,13.76,0,5.32,0,10.64,0,16a12.72,12.72,0,0,1-.28,2.61c-2.1,9.92-4.45,19.8-6.25,29.78-.71,4-2.92,6.36-5.78,8.6A11.51,11.51,0,0,1,110.77,84c-3.11-.06-4.44-1.22-4.5-4.34a34.6,34.6,0,0,1,5.14-19,8.15,8.15,0,0,1,2.3-2.38c1.34-.92,2.56-.36,2.59,1.25a34.19,34.19,0,0,1-.56,4.46A1.42,1.42,0,0,0,116,65a4.06,4.06,0,0,0,5.83-.84c2.65-3.64.72-9.5-3.59-10.71a15.73,15.73,0,0,0-10,.59c-4.36,1.63-7.11,5-9.41,8.86-.65,1.08-1.17,2.23-1.91,3.68V65c0-14.16,0-28.32-.07-42.48a13.19,13.19,0,0,0-13-12.68q-30.36,0-60.72,0A13.16,13.16,0,0,0,10.25,21.74c-.26,3.91-.13,7.84-.13,11.75v91a13.31,13.31,0,0,0,13.66,13.63c4.84,0,9.69.18,14.52-.07,2.74-.14,4.8.38,6.06,3a1.74,1.74,0,0,0,.3.37c2.33,2.89,4.8,5.69,7,8.71a17.16,17.16,0,0,1,2.61,5.58,8.24,8.24,0,0,1-5.87,10.29c-3.14.79-6.17-.21-7.55-2.49a6.7,6.7,0,0,1,4.14-10.08,29.82,29.82,0,0,1,3.15-.43,5.63,5.63,0,0,0-3.79-5.09,9.21,9.21,0,0,0-9.78,2.07c-5.44,5-5.67,16.12,2.85,20.22,7.78,3.75,15.47,2.84,22.42-2.19,5.56-4,7.48-9.71,6.08-16.4-.78-3.77-2.89-6.89-5.4-9.75l-3.27-3.71H72.38v-5H65.55c2.15-1.72,2.79-2.63,3.26-4.43a9.69,9.69,0,0,0-5.91-11.74A19,19,0,0,0,44.51,119a11.77,11.77,0,0,0-5.31,9.36,44.33,44.33,0,0,0,.24,4.78H23.91a8.47,8.47,0,0,1-8.83-8.85V62.06l4.52.38a13.11,13.11,0,0,1-1.15-7.95,15.18,15.18,0,0,1,2.61-7.25,14.91,14.91,0,0,1,6.09-5.12L16.81,90.64H28.22l5.76-27H43.5l-5.75,27c3.56,0,7,0,10.43,0,.82,0,1.06-.28,1.22-1q4.86-23,9.78-46.05c.55-2.57,1.08-5.14,1.63-7.76H49.41L44.82,57.18H35.3c1.54-7.16,3-14.21,4.57-21.34a28.81,28.81,0,0,0-9.35.44A31.26,31.26,0,0,0,15.17,44.77ZM168,45.8c-3.17,15-6.31,29.88-9.49,44.88,3.55,0,7,0,10.41,0,.79,0,1.07-.23,1.23-1q5.58-26.43,11.23-52.85c.09-.44.14-.88.2-1.2a86,86,0,0,1-9.31,4.15c-3.19,1-6.6,1.38-10.11,2.06l-1,4Z" transform="translate(-0.64 -0.68)"/><path class="cls-1" d="M15.17,44.77a31.26,31.26,0,0,1,15.35-8.49,28.81,28.81,0,0,1,9.35-.44C38.34,43,36.84,50,35.3,57.18h9.52l4.59-21.34h11.4c-.55,2.62-1.08,5.19-1.63,7.76q-4.89,23-9.78,46.05c-.16.77-.4,1.06-1.22,1-3.43,0-6.87,0-10.43,0l5.75-27H34l-5.76,27H16.81L27.15,42.12a14.91,14.91,0,0,0-6.09,5.12,15.18,15.18,0,0,0-2.61,7.25,13.11,13.11,0,0,0,1.15,7.95l-4.52-.38v62.21a8.47,8.47,0,0,0,8.83,8.85H39.44a44.33,44.33,0,0,1-.24-4.78A11.77,11.77,0,0,1,44.51,119a19,19,0,0,1,18.39-2.06,9.69,9.69,0,0,1,5.91,11.74c-.47,1.8-1.11,2.71-3.26,4.43h6.83v5H57.2l3.27,3.71c2.51,2.86,4.62,6,5.4,9.75,1.4,6.69-.52,12.39-6.08,16.4-6.95,5-14.64,5.94-22.42,2.19-8.52-4.1-8.29-15.25-2.85-20.22a9.21,9.21,0,0,1,9.78-2.07,5.63,5.63,0,0,1,3.79,5.09,29.82,29.82,0,0,0-3.15.43,6.7,6.7,0,0,0-4.14,10.08c1.38,2.28,4.41,3.28,7.55,2.49a8.24,8.24,0,0,0,5.87-10.29A17.16,17.16,0,0,0,51.61,150c-2.15-3-4.62-5.82-7-8.71a1.74,1.74,0,0,1-.3-.37c-1.26-2.57-3.32-3.09-6.06-3-4.83.25-9.68.07-14.52.07a13.31,13.31,0,0,1-13.66-13.63v-91c0-3.91-.13-7.84.13-11.75A13.16,13.16,0,0,1,23.13,9.85q30.36,0,60.72,0a13.19,13.19,0,0,1,13,12.68c.11,14.16.06,28.32.07,42.48v1.61c.74-1.45,1.26-2.6,1.91-3.68,2.3-3.84,5-7.23,9.41-8.86a15.73,15.73,0,0,1,10-.59c4.31,1.21,6.24,7.07,3.59,10.71A4.06,4.06,0,0,1,116,65a1.42,1.42,0,0,1-.26-1.1,34.19,34.19,0,0,0,.56-4.46c0-1.61-1.25-2.17-2.59-1.25a8.15,8.15,0,0,0-2.3,2.38,34.6,34.6,0,0,0-5.14,19c.06,3.12,1.39,4.28,4.5,4.34a11.51,11.51,0,0,0,7.59-2.47c2.86-2.24,5.07-4.64,5.78-8.6,1.8-10,4.15-19.86,6.25-29.78a12.72,12.72,0,0,0,.28-2.61c0-5.32,0-10.64,0-16,0-7.85,5.71-13.74,13.55-13.76q29.82-.08,59.64,0c7.93,0,13.58,5.92,13.59,14q0,50.16,0,100.32c0,.44,0,.87-.07,1.31A13.33,13.33,0,0,1,204,139.11c-5.72,0-11.44,0-17.16,0h-1.38c1,5.53-.87,10.55-2,15.67a43.86,43.86,0,0,0-1.06,5.39c-.27,2.84,1.66,4.07,4.3,2.87.29-.13.55-.3.85-.46a8.16,8.16,0,0,1-7.32,8.74c-7.17.68-9.37-4.62-8.75-9.74.5-4.07,1.58-8.06,2.36-12.1a39.76,39.76,0,0,0,.76-5c.07-1.19.1-2.64-1.36-3.16a2.86,2.86,0,0,0-3.44,1.34,15.25,15.25,0,0,0-2.26,4.55c-1.74,7.55-3.27,15.14-4.89,22.72-.06.27-.15.53-.26.9h-8.07v1.48c0,10.36-.13,20.73.06,31.08.09,4.71-3,9.49-9.45,9.4-6.76-.09-13.52,0-20.28,0q-18.84,0-37.68,0c-3.83,0-6.94-1.31-8.6-4.91a10.4,10.4,0,0,1-.85-4.17c-.07-10.28,0-20.56,0-30.84v-1.46c-.79-.07-1.47-.07-2.12-.19-3.88-.68-6.22-3.45-6.53-7.62-.24-3.2.55-6.27,1.21-9.35,2.3-10.78,4.56-21.57,7-32.32a22.29,22.29,0,0,0,.47-4.79c0-4.6,0-9.2,0-13.8,0-5.31,3.59-8.88,8.89-8.88h59.16c5.22,0,8.79,3.59,8.79,8.83v51l.19,0c.31-1.37.64-2.73.93-4.1q3-14.13,6-28.25c.16-.75.41-1,1.2-1.14,3.26-.39,6.5-.88,9.74-1.32.27,0,.54,0,1-.06l-3.14,14.69c1.47-.07,2.8-.16,4.13-.18,1.94,0,3.88,0,5.82,0,.51,0,1,.14,1.54.14h22c5,0,8.8-3.44,8.84-8.47.1-12.6,0-25.2,0-37.8a2,2,0,0,0-.13-.42c-.4.45-.71.85-1.06,1.21a9,9,0,0,1-10.11,1.59,7.23,7.23,0,0,1-3.7-7.17A88.38,88.38,0,0,1,199,73.14c.48-2.79,1.06-5.56,1.56-8.35a6.19,6.19,0,0,0,0-1.55,2.18,2.18,0,0,0-1.23-2.16,2.38,2.38,0,0,0-2.76.62,11.94,11.94,0,0,0-2.46,3.75c-.93,2.92-1.54,5.94-2.19,8.94-1.18,5.38-2.3,10.78-3.45,16.22H177.08Q181,72.15,184.9,53.73h11.37l-.42,2.38,1.36-.92a11,11,0,0,1,9.19-1.44c3.34.87,5.31,3.69,5.44,7.6.11,3.48-.81,6.8-1.58,10.15-.64,2.8-1.35,5.59-1.78,8.43-.39,2.56.69,3.47,3.27,3.06.29,0,.55-.48.76-.78.09-.14,0-.39,0-.59q0-28.32,0-56.64c0-4.38-2.26-7.68-6.06-8.77a10.93,10.93,0,0,0-3-.4q-29.46,0-58.92,0c-5.36,0-9,3.59-9,9v15.3l7-.89c-1.75,8.21-3.46,16.26-5.23,24.61l7.46-5.87c1.57-1.24,3.14-2.49,4.72-3.71a2,2,0,0,1,1-.49,81.5,81.5,0,0,1,8.23.21l-13.44,9.34,1.15.11a7.76,7.76,0,0,1,7.37,8.09,57.51,57.51,0,0,1-1,7.32c0,.16-.08.31-.11.47-.83,3.52.64,4.22,3.93,3.63.34-.06.67-.16,1-.24.56,4.08-3.55,8.64-7.54,8.47a16.1,16.1,0,0,1-2.5-.3,7.81,7.81,0,0,1-6.56-8.89c.25-2.5.81-5,1.18-7.45a7.67,7.67,0,0,0,0-2.14c-.26-1.84-1.3-2.57-3-1.94a14.81,14.81,0,0,0-3.29,1.9c-.29.21-.37.85-.37,1.29,0,4.76,0,9.52,0,14.28v1.56H132l-.41,1.21H120.29c.44-2.13.87-4.18,1.36-6.54-3.46,3.52-7.24,6-11.91,6.7s-9,.41-12.76-3.18l-.11,1.76c-2.46.34-4.52.19-5.21-.37-6.12,3.49-12.77,2.88-14.53-3.46-1.17,1.09-2.3,2.3-3.58,3.3a10.57,10.57,0,0,1-14.17-.9c-2.09-2.25-2.66-5.09-2.67-8,0-8.24,2.23-15.7,8-21.84a14.15,14.15,0,0,1,13.11-4.61A18.81,18.81,0,0,1,81.56,55l.37-1.24h10c0-.51.06-.9.06-1.29q0-14.16,0-28.32c0-4.91-2.6-8.27-7-9.13a8.93,8.93,0,0,0-1.55-.13H23.56a8.39,8.39,0,0,0-8.47,8.33c-.05,7,0,14,0,21A5,5,0,0,0,15.17,44.77ZM48.34,89.63C52.08,72.05,55.81,54.5,59.57,36.8c-3,0-5.88,0-8.71,0-.27,0-.69.49-.76.81-.76,3.34-1.46,6.71-2.19,10.06s-1.51,7-2.26,10.5H34C35.56,51,37.08,44,38.59,36.87a3.1,3.1,0,0,0-.34-.13c-.2,0-.4-.05-.6-.05a28.62,28.62,0,0,0-21.58,8.73c-2.87,2.86-4.72,6.22-4.41,10.47.26,3.51,2.61,5.55,6.18,5.29-2.28-9.64,2.7-18.3,10.7-20.66-3.49,16.39-7,32.71-10.47,49.16,3,0,5.83,0,8.62,0,.29,0,.76-.5.83-.84,1.31-5.93,2.57-11.86,3.83-17.8l1.79-8.34H44.76c-1.92,9-3.82,18-5.73,27ZM59.5,130.78a4.71,4.71,0,0,0,4.78,1.46,4.79,4.79,0,0,0,3.53-3.85,8.71,8.71,0,0,0-5.9-10.76,17.77,17.77,0,0,0-16.7,2.14c-4.2,3-5.73,7.13-4.75,12.19.56,2.89,2.26,5.18,4,7.42,2.69,3.43,5.52,6.74,8.13,10.23A15.55,15.55,0,0,1,55,154.26c2,6.42-1.53,12.14-7.78,12.9a7.2,7.2,0,0,1-7.72-4,7.75,7.75,0,0,1,6.23-11c.37-.05.74-.13,1.17-.2a5,5,0,0,0-3.64-3.37,7.79,7.79,0,0,0-6.15.77c-3.73,2.19-5.32,5.64-5.34,9.82,0,4.4,1.85,8,5.81,9.91,7.46,3.67,14.79,2.89,21.51-1.87a14.26,14.26,0,0,0,4.69-18.43,37.73,37.73,0,0,0-4.59-6.82c-2.44-3.1-5.14-6-7.62-9.08a9.48,9.48,0,0,1-1.93-7.46,6.83,6.83,0,0,1,4.43-5.92c3.87-1.47,8.87.36,8.05,6.28A8.57,8.57,0,0,1,59.5,130.78Zm92.75,39.14c2.67,0,5.23-.09,7.77,0,1.28.06,1.67-.4,1.91-1.58q2.22-10.86,4.6-21.67a9.17,9.17,0,0,1,3.59-5.78c2.53-1.76,5.15-.53,5.43,2.52a9.66,9.66,0,0,1-.1,2.63c-.5,2.7-1.08,5.39-1.63,8.09-.68,3.32-1.73,6.58-1.36,10,.45,4.24,3.36,6.6,7.56,6.1,3.41-.41,6-2.89,6.2-5.91-4.63-.27-5.59-1.41-4.69-5.81.55-2.7,1.34-5.35,1.85-8.05a63.47,63.47,0,0,0,1.28-8.86,6.25,6.25,0,0,0-5.18-6.81,10.12,10.12,0,0,0-9.47,2.79c-.59.57-1.1,1.22-1.64,1.84l-.32-.23,4-18.55a6.72,6.72,0,0,0-.78,0c-2.49.34-5,.74-7.48,1-1.08.11-1.41.59-1.62,1.59-1.7,8.2-3.48,16.4-5.22,24.6-.64,3-1.26,6-1.93,9.19h3.25a39.66,39.66,0,0,1-3.57,4.05,2.7,2.7,0,0,0-.75,1C153.34,164.7,152.82,167.24,152.25,169.92ZM121.76,89.68c2.54,0,5.13,0,7.72,0,1,0,1.46-.21,1.67-1.28,1-5.13,2.11-10.24,3.19-15.36a2.08,2.08,0,0,1,.4-1.1c1.55-1.32,3.16-2.6,5.32-2.75,1.75-.12,2.94.65,3.16,2.39a19.47,19.47,0,0,1-.12,4.51c-.23,2-.78,4-.91,6-.26,4.24,1.91,6.93,6,7.73a13.82,13.82,0,0,0,2,.2c2.92.11,6.41-3.2,6.34-6-.72,0-1.43,0-2.15,0a2.72,2.72,0,0,1-2.85-3,19.32,19.32,0,0,1,.37-2.72,46.68,46.68,0,0,0,1-6.49c.06-5-3.39-7.94-8.32-7.4a35.57,35.57,0,0,0-3.5.71l-.08-.13,14.54-10.13a29.65,29.65,0,0,0-3.67-.25,3.15,3.15,0,0,0-2.28.8c-3.68,2.95-7.39,5.85-11.1,8.77-.81.64-1.64,1.26-2.73,2.1l5.52-26c-2.84.39-5.48.82-8.13,1.07A1.66,1.66,0,0,0,131.44,43c-1.86,8.95-3.79,17.88-5.69,26.82-.49,2.28-1,4.56-1.46,7h2.93C123.92,80.62,121.86,84.67,121.76,89.68ZM94.58,81.92a17.7,17.7,0,0,1-1.47,1.53,4.3,4.3,0,0,1-4.82.67c-1.63-.8-1.67-2.39-1.54-4A7.74,7.74,0,0,1,86.88,79q1.71-8.09,3.45-16.17c.57-2.67,1.11-5.35,1.68-8.07H82.74C81.85,58.9,81,63,80.08,67.18c-.79,3.67-1.54,7.35-2.4,11a7.81,7.81,0,0,1-4,5.31c-2.84,1.55-5.68.21-6.19-3a23.11,23.11,0,0,1,.57-8.8c1-4.24,2.33-8.32,5.23-11.69a5.52,5.52,0,0,1,5-2.23,12.2,12.2,0,0,1,2.6,1c.16-3-.78-4.13-3.86-4.43a13,13,0,0,0-11,3.73c-6.43,6.43-8.79,14.39-8.29,23.3a8.92,8.92,0,0,0,2.8,6.31,9.53,9.53,0,0,0,12.43.14,46.29,46.29,0,0,0,4-4.26c.23-.24.43-.51.74-.87.12.77.21,1.35.31,1.93.59,3.3,2.48,5.13,5.81,5.33,3.92.23,7.09-1.46,9.87-4.1A3,3,0,0,0,94.58,81.92ZM93,157.06c-1.17,2.46-2.23,4.6-3.2,6.77a2.16,2.16,0,0,0-.09,1.52,8.52,8.52,0,0,0,8.28,5c3.72-.09,6.38-2.06,8.66-4.73.69-.8,1.31-1.67,2.1-2.68.07.6.11,1,.17,1.35.57,4.16,3.14,6.32,7.19,6a12.79,12.79,0,0,0,7.31-3c2-1.62,1.79-1.13.72-3.62-.34.21-.66.43-1,.61-3,1.5-5.57-.11-5.48-3.44a8.52,8.52,0,0,1,.17-1.67q1.83-8.67,3.69-17.34L123,135c-2.84,0-5.51,0-8.17,0-.93,0-1.21.31-1.38,1.17-1.48,7.16-3,14.3-4.53,21.45a9.15,9.15,0,0,1-3.15,5.5,4.78,4.78,0,0,1-5.14.95c-1.82-.78-2.16-2.45-2.25-4.17a30.62,30.62,0,0,1,2.89-14.55,29.43,29.43,0,0,1,3.23-5.15,5.49,5.49,0,0,1,4-2.13,3.81,3.81,0,0,1,3.41,1.45c.28-3.23-.83-4.58-3.95-4.83a13.47,13.47,0,0,0-10.6,3.51c-4.27,3.89-6.59,8.85-7.87,14.37-.34,1.45-.54,2.94-.82,4.55ZM195,54.73h-9.3c-2.46,11.63-4.92,23.22-7.4,35,2.95,0,5.62,0,8.29,0,.8,0,1.08-.25,1.25-1,1.41-6.88,2.8-13.77,4.38-20.61a21.36,21.36,0,0,1,2.31-5.6,6.07,6.07,0,0,1,2.66-2.26,2.84,2.84,0,0,1,4.27,2.45,22.21,22.21,0,0,1-.37,5.57c-.79,4.36-2,8.65-2.57,13-.63,4.56,1.2,9.64,8,8.72,3.12-.42,5.79-3.13,5.75-5.94l-.58,0c-3.46.17-4.75-1.13-4.22-4.59.39-2.52,1.11-5,1.59-7.49a83.65,83.65,0,0,0,1.7-10.13c.27-4-1.77-6.55-5.33-7.26a10,10,0,0,0-9.26,2.76l-2.08,2,.47-2.33C194.71,56.32,194.87,55.58,195,54.73Zm-107.36,107a18.52,18.52,0,0,1-1.81,1.57,5.94,5.94,0,0,1-2,.95c-3.39.62-5-.52-4.7-3.71a8,8,0,0,1,.17-1.18q2.48-11.72,5-23.43c1.07-5,2.13-10,3.24-15.24-2.84.38-5.55.8-8.28,1.08-1.09.11-1.4.6-1.6,1.58-2.19,10.39-4.46,20.77-6.62,31.16A44.83,44.83,0,0,0,69.83,163c-.06,5,3.41,7.89,8.24,7.33a15.06,15.06,0,0,0,8.09-3.61c1.38-1.17,2.55-2.46,1.62-4.49A2.43,2.43,0,0,1,87.68,161.68Zm50.39-22.15c0,.07,0,.25.05.43.32,3.75.67,7.49.95,11.23.21,2.75.5,5.5.46,8.25a5.82,5.82,0,0,1-4.37,5.9c-3,.91-5,.28-7-2.28a24.53,24.53,0,0,0-1.46,2.33,1.41,1.41,0,0,0,0,1.22,7.68,7.68,0,0,0,4.51,3.18,15.77,15.77,0,0,0,13.45-2.41c1.31-.91,2.58-1.86,3.87-2.8,1.13-.82,2.23-1.69,3.39-2.47a3.2,3.2,0,0,0,1.38-2.92l-4.54,2.8c.45-9.77-1.33-19.39-1.31-29.22-3.24.44-6.25.82-9.25,1.29-.33.05-.7.56-.84.94-1.83,4.68-3.5,9.42-5.47,14-1.18,2.78-2.15,5.79-4.9,7.61,0,0,0,.14-.15.41h3.72l-1.14,3.33c1.75.25,2.74-.26,3.3-1.64s.18-2.33-1.33-3.46Q134.79,147.36,138.07,139.53ZM99.89,76.73a39.42,39.42,0,0,1-2.69,5.92c-1.08,1.63-.56,2.74.41,3.93,2.42,3,5.75,3.57,9.29,3.47,6.08-.18,10.84-3,14.69-7.53.65-.75.78-2,1.16-2.94l-.36-.17-2.11,1.91A13,13,0,0,1,110.11,85c-3.25-.26-4.78-1.71-4.79-5a46.36,46.36,0,0,1,.72-8.32A29.3,29.3,0,0,1,111,59.46a8.06,8.06,0,0,1,2.54-2.29,2.39,2.39,0,0,1,3.79,1.92,14.67,14.67,0,0,1-.36,4.37c-.17.84.12,1.08.76,1.27a2.93,2.93,0,0,0,3.43-1.32c2.08-3.19.36-8.07-3.32-9a14.22,14.22,0,0,0-13.43,3.22c-5.6,5-7.74,11.73-8.71,19.06ZM68.28,78c.09.84.14,1.8.32,2.74A2.44,2.44,0,0,0,71.38,83,5.92,5.92,0,0,0,74,82a7.67,7.67,0,0,0,3-5q1.59-7.5,3.17-15c.51-2.39-.88-3.7-3.25-3.07a7,7,0,0,0-4,3.43C69.87,67.09,68.67,72.38,68.28,78ZM58,130.75c2.15-2.24,2.63-3,3-4.66.82-3.57-1.27-6.3-4.68-6.08a5.68,5.68,0,0,0-5.27,3.88,8.63,8.63,0,0,0,.55,7.17c.74,1.48,1.65,2.34,3.51,2.11a44.69,44.69,0,0,1,5.44,0ZM92,61.07l-.13,0a4.57,4.57,0,0,0-.22.62c-.81,3.82-1.64,7.64-2.42,11.47-.52,2.57-1.14,5.15-1.42,7.75-.23,2.1,1.38,3.16,3.38,2.43a1.35,1.35,0,0,0,.77-1C92,75.27,92,68.17,92,61.07Zm33.86,103.67c1.57-2,2.63-4.05,1.81-6.89-.26.43-.42.66-.54.91a15.6,15.6,0,0,1-1.2,2.58A2.82,2.82,0,0,0,125.82,164.74ZM96.2,82.63l2.06-4.69L98,77.57c-.58.24-1.43.31-1.69.75A4.25,4.25,0,0,0,96.2,82.63Zm-7.48,80.11.53.1q1-2.29,2.07-4.6c-1.34-.41-2.19-.15-2.36,1.13C88.8,160.49,88.79,161.62,88.72,162.74Zm66-4.63-.24,1.49-.11-.32,1.86-1.17Z" transform="translate(-0.64 -0.68)"/><path class="cls-1" d="M168,45.8h-6.85l1-4c3.51-.68,6.92-1,10.11-2.06a86,86,0,0,0,9.31-4.15c-.06.32-.11.76-.2,1.2q-5.62,26.42-11.23,52.85c-.16.79-.44,1-1.23,1-3.43,0-6.86,0-10.41,0C161.67,75.68,164.81,60.8,168,45.8Zm1.1,43.82c3.7-17.41,7.39-34.74,11.12-52.33a34.14,34.14,0,0,1-15.61,5.09c-1.78.12-1.94.34-1.9,2.39h6.56c-3.18,15-6.32,29.9-9.48,44.85Z" transform="translate(-0.64 -0.68)"/><path d="M48.34,89.63H39c1.91-9,3.81-17.93,5.73-27H33.14L31.35,71c-1.26,5.94-2.52,11.87-3.83,17.8-.07.34-.54.83-.83.84-2.79.06-5.59,0-8.62,0,3.5-16.45,7-32.77,10.47-49.16-8,2.36-13,11-10.7,20.66-3.57.26-5.92-1.78-6.18-5.29-.31-4.25,1.54-7.61,4.41-10.47a28.62,28.62,0,0,1,21.58-8.73c.2,0,.4,0,.6.05a3.1,3.1,0,0,1,.34.13C37.08,44,35.56,51,34,58.21H45.65c.75-3.49,1.51-7,2.26-10.5S49.34,41,50.1,37.65c.07-.32.49-.8.76-.81,2.83-.06,5.66,0,8.71,0C55.81,54.5,52.08,72.05,48.34,89.63Z" transform="translate(-0.64 -0.68)"/><path d="M59.5,130.78a8.57,8.57,0,0,0,2.6-5c.82-5.92-4.18-7.75-8.05-6.28a6.83,6.83,0,0,0-4.43,5.92,9.48,9.48,0,0,0,1.93,7.46c2.48,3.07,5.18,6,7.62,9.08a37.73,37.73,0,0,1,4.59,6.82,14.26,14.26,0,0,1-4.69,18.43c-6.72,4.76-14,5.54-21.51,1.87-4-1.95-5.83-5.51-5.81-9.91,0-4.18,1.61-7.63,5.34-9.82a7.79,7.79,0,0,1,6.15-.77,5,5,0,0,1,3.64,3.37c-.43.07-.8.15-1.17.2a7.75,7.75,0,0,0-6.23,11,7.2,7.2,0,0,0,7.72,4c6.25-.76,9.76-6.48,7.78-12.9a15.55,15.55,0,0,0-2.39-4.65c-2.61-3.49-5.44-6.8-8.13-10.23-1.74-2.24-3.44-4.53-4-7.42-1-5.06.55-9.24,4.75-12.19a17.77,17.77,0,0,1,16.7-2.14,8.71,8.71,0,0,1,5.9,10.76,4.79,4.79,0,0,1-3.53,3.85A4.71,4.71,0,0,1,59.5,130.78Z" transform="translate(-0.64 -0.68)"/><path d="M152.25,169.92c.57-2.68,1.09-5.22,1.68-7.74a2.7,2.7,0,0,1,.75-1,39.66,39.66,0,0,0,3.57-4.05H155c.67-3.21,1.29-6.2,1.93-9.19,1.74-8.2,3.52-16.4,5.22-24.6.21-1,.54-1.48,1.62-1.59,2.5-.26,5-.66,7.48-1a6.72,6.72,0,0,1,.78,0l-4,18.55.32.23c.54-.62,1-1.27,1.64-1.84a10.12,10.12,0,0,1,9.47-2.79,6.25,6.25,0,0,1,5.18,6.81,63.47,63.47,0,0,1-1.28,8.86c-.51,2.7-1.3,5.35-1.85,8.05-.9,4.4.06,5.54,4.69,5.81-.19,3-2.79,5.5-6.2,5.91-4.2.5-7.11-1.86-7.56-6.1-.37-3.46.68-6.72,1.36-10,.55-2.7,1.13-5.39,1.63-8.09a9.66,9.66,0,0,0,.1-2.63c-.28-3-2.9-4.28-5.43-2.52a9.17,9.17,0,0,0-3.59,5.78q-2.4,10.81-4.6,21.67c-.24,1.18-.63,1.64-1.91,1.58C157.48,169.83,154.92,169.92,152.25,169.92Z" transform="translate(-0.64 -0.68)"/><path d="M121.76,89.68c.1-5,2.16-9.06,5.46-12.88h-2.93c.51-2.4,1-4.68,1.46-7,1.9-8.94,3.83-17.87,5.69-26.82a1.66,1.66,0,0,1,1.76-1.59c2.65-.25,5.29-.68,8.13-1.07l-5.52,26c1.09-.84,1.92-1.46,2.73-2.1,3.71-2.92,7.42-5.82,11.1-8.77a3.15,3.15,0,0,1,2.28-.8,29.65,29.65,0,0,1,3.67.25L141.05,65l.08.13a35.57,35.57,0,0,1,3.5-.71c4.93-.54,8.38,2.44,8.32,7.4a46.68,46.68,0,0,1-1,6.49,19.32,19.32,0,0,0-.37,2.72,2.72,2.72,0,0,0,2.85,3c.72,0,1.43,0,2.15,0,.07,2.8-3.42,6.11-6.34,6a13.82,13.82,0,0,1-2-.2c-4.13-.8-6.3-3.49-6-7.73.13-2,.68-4,.91-6a19.47,19.47,0,0,0,.12-4.51c-.22-1.74-1.41-2.51-3.16-2.39-2.16.15-3.77,1.43-5.32,2.75a2.08,2.08,0,0,0-.4,1.1c-1.08,5.12-2.19,10.23-3.19,15.36-.21,1.07-.67,1.31-1.67,1.28C126.89,89.64,124.3,89.68,121.76,89.68Z" transform="translate(-0.64 -0.68)"/><path d="M94.58,81.92a3,3,0,0,1-.77,4c-2.78,2.64-6,4.33-9.87,4.1-3.33-.2-5.22-2-5.81-5.33-.1-.58-.19-1.16-.31-1.93-.31.36-.51.63-.74.87a46.29,46.29,0,0,1-4,4.26,9.53,9.53,0,0,1-12.43-.14,8.92,8.92,0,0,1-2.8-6.31c-.5-8.91,1.86-16.87,8.29-23.3a13,13,0,0,1,11-3.73c3.08.3,4,1.42,3.86,4.43a12.2,12.2,0,0,0-2.6-1,5.52,5.52,0,0,0-5,2.23c-2.9,3.37-4.27,7.45-5.23,11.69a23.11,23.11,0,0,0-.57,8.8c.51,3.17,3.35,4.51,6.19,3a7.81,7.81,0,0,0,4-5.31c.86-3.65,1.61-7.33,2.4-11C81,63,81.85,58.9,82.74,54.73H92c-.57,2.72-1.11,5.4-1.68,8.07Q88.61,70.88,86.88,79a7.74,7.74,0,0,0-.13,1.19c-.13,1.57-.09,3.16,1.54,4a4.3,4.3,0,0,0,4.82-.67A17.7,17.7,0,0,0,94.58,81.92Z" transform="translate(-0.64 -0.68)"/><path d="M93,157.06H88.64c.28-1.61.48-3.1.82-4.55,1.28-5.52,3.6-10.48,7.87-14.37a13.47,13.47,0,0,1,10.6-3.51c3.12.25,4.23,1.6,3.95,4.83a3.81,3.81,0,0,0-3.41-1.45,5.49,5.49,0,0,0-4,2.13,29.43,29.43,0,0,0-3.23,5.15,30.62,30.62,0,0,0-2.89,14.55c.09,1.72.43,3.39,2.25,4.17a4.78,4.78,0,0,0,5.14-.95,9.15,9.15,0,0,0,3.15-5.5c1.52-7.15,3-14.29,4.53-21.45.17-.86.45-1.19,1.38-1.17,2.66.06,5.33,0,8.17,0l-1.44,6.92q-1.85,8.67-3.69,17.34a8.52,8.52,0,0,0-.17,1.67c-.09,3.33,2.48,4.94,5.48,3.44.36-.18.68-.4,1-.61,1.07,2.49,1.25,2-.72,3.62a12.79,12.79,0,0,1-7.31,3c-4.05.29-6.62-1.87-7.19-6-.06-.37-.1-.75-.17-1.35-.79,1-1.41,1.88-2.1,2.68-2.28,2.67-4.94,4.64-8.66,4.73a8.52,8.52,0,0,1-8.28-5,2.16,2.16,0,0,1,.09-1.52C90.78,161.66,91.84,159.52,93,157.06Z" transform="translate(-0.64 -0.68)"/><path d="M195,54.73c-.17.85-.33,1.59-.48,2.33l-.47,2.33,2.08-2a10,10,0,0,1,9.26-2.76c3.56.71,5.6,3.22,5.33,7.26A83.65,83.65,0,0,1,209.06,72c-.48,2.51-1.2,5-1.59,7.49-.53,3.46.76,4.76,4.22,4.59l.58,0c0,2.81-2.63,5.52-5.75,5.94-6.76.92-8.59-4.16-8-8.72.61-4.38,1.78-8.67,2.57-13a22.21,22.21,0,0,0,.37-5.57,2.84,2.84,0,0,0-4.27-2.45,6.07,6.07,0,0,0-2.66,2.26,21.36,21.36,0,0,0-2.31,5.6c-1.58,6.84-3,13.73-4.38,20.61-.17.79-.45,1-1.25,1-2.67,0-5.34,0-8.29,0,2.48-11.73,4.94-23.32,7.4-35Z" transform="translate(-0.64 -0.68)"/><path d="M87.68,161.68a2.43,2.43,0,0,0,.1.52c.93,2-.24,3.32-1.62,4.49a15.06,15.06,0,0,1-8.09,3.61c-4.83.56-8.3-2.35-8.24-7.33A44.83,44.83,0,0,1,71,154.46c2.16-10.39,4.43-20.77,6.62-31.16.2-1,.51-1.47,1.6-1.58,2.73-.28,5.44-.7,8.28-1.08-1.11,5.19-2.17,10.22-3.24,15.24q-2.49,11.72-5,23.43a8,8,0,0,0-.17,1.18c-.28,3.19,1.31,4.33,4.7,3.71a5.94,5.94,0,0,0,2-.95A18.52,18.52,0,0,0,87.68,161.68Z" transform="translate(-0.64 -0.68)"/><path d="M138.07,139.53q-3.27,7.82-6.61,15.76c1.51,1.13,1.9,2.07,1.33,3.46s-1.55,1.89-3.3,1.64l1.14-3.33h-3.72c.1-.27.1-.38.15-.41,2.75-1.82,3.72-4.83,4.9-7.61,2-4.62,3.64-9.36,5.47-14,.14-.38.51-.89.84-.94,3-.47,6-.85,9.25-1.29,0,9.83,1.76,19.45,1.31,29.22l4.54-2.8a3.2,3.2,0,0,1-1.38,2.92c-1.16.78-2.26,1.65-3.39,2.47-1.29.94-2.56,1.89-3.87,2.8a15.77,15.77,0,0,1-13.45,2.41,7.68,7.68,0,0,1-4.51-3.18,1.41,1.41,0,0,1,0-1.22,24.53,24.53,0,0,1,1.46-2.33c2,2.56,3.93,3.19,7,2.28a5.82,5.82,0,0,0,4.37-5.9c0-2.75-.25-5.5-.46-8.25-.28-3.74-.63-7.48-.95-11.23C138.11,139.78,138.08,139.6,138.07,139.53Z" transform="translate(-0.64 -0.68)"/><path d="M99.89,76.73H95.65c1-7.33,3.11-14,8.71-19.06a14.22,14.22,0,0,1,13.43-3.22c3.68.89,5.4,5.77,3.32,9a2.93,2.93,0,0,1-3.43,1.32c-.64-.19-.93-.43-.76-1.27a14.67,14.67,0,0,0,.36-4.37,2.39,2.39,0,0,0-3.79-1.92A8.06,8.06,0,0,0,111,59.46,29.3,29.3,0,0,0,106,71.71a46.36,46.36,0,0,0-.72,8.32c0,3.26,1.54,4.71,4.79,5a13,13,0,0,0,10.17-3.68l2.11-1.91.36.17c-.38,1-.51,2.19-1.16,2.94-3.85,4.5-8.61,7.35-14.69,7.53-3.54.1-6.87-.51-9.29-3.47-1-1.19-1.49-2.3-.41-3.93A39.42,39.42,0,0,0,99.89,76.73Z" transform="translate(-0.64 -0.68)"/><path d="M68.28,78c.39-5.66,1.59-11,4.59-15.7a7,7,0,0,1,4-3.43c2.37-.63,3.76.68,3.25,3.07Q78.53,69.48,77,77a7.67,7.67,0,0,1-3,5,5.92,5.92,0,0,1-2.62,1,2.44,2.44,0,0,1-2.78-2.22C68.42,79.84,68.37,78.88,68.28,78Z" transform="translate(-0.64 -0.68)"/><path d="M58,130.75l2.56,2.37a44.69,44.69,0,0,0-5.44,0c-1.86.23-2.77-.63-3.51-2.11a8.63,8.63,0,0,1-.55-7.17A5.68,5.68,0,0,1,56.33,120c3.41-.22,5.5,2.51,4.68,6.08C60.63,127.76,60.15,128.51,58,130.75Z" transform="translate(-0.64 -0.68)"/><path d="M92,61.07c0,7.1,0,14.2,0,21.29a1.35,1.35,0,0,1-.77,1c-2,.73-3.61-.33-3.38-2.43.28-2.6.9-5.18,1.42-7.75.78-3.83,1.61-7.65,2.42-11.47a4.57,4.57,0,0,1,.22-.62Z" transform="translate(-0.64 -0.68)"/><path d="M125.82,164.74a2.82,2.82,0,0,1,.07-3.4,15.6,15.6,0,0,0,1.2-2.58c.12-.25.28-.48.54-.91C128.45,160.69,127.39,162.72,125.82,164.74Z" transform="translate(-0.64 -0.68)"/><path d="M96.2,82.63a4.25,4.25,0,0,1,.06-4.31c.26-.44,1.11-.51,1.69-.75l.31.37Z" transform="translate(-0.64 -0.68)"/><path d="M88.72,162.74c.07-1.12.08-2.25.24-3.37.17-1.28,1-1.54,2.36-1.13q-1,2.31-2.07,4.6Z" transform="translate(-0.64 -0.68)"/><path d="M154.75,158.11h1.51l-1.86,1.17.11.32Z" transform="translate(-0.64 -0.68)"/><path d="M169.08,89.62h-9.31c3.16-15,6.3-29.82,9.48-44.85h-6.56c0-2.05.12-2.27,1.9-2.39a34.14,34.14,0,0,0,15.61-5.09C176.47,54.88,172.78,72.21,169.08,89.62Z" transform="translate(-0.64 -0.68)"/></svg>