<svg id="Layer_1" data-name="Layer 1" xmlns="http://www.w3.org/2000/svg" viewBox="0 0 225 225"><defs><style>.cls-1{fill:#fff;}</style></defs><title>linkedln-icon-svg</title><path d="M207,226H20Q5,222,1,207V20Q5,5,20,1H207q15,4,19,19V207Q222,222,207,226ZM124.9,91.37H91.35V191.88h33.53v-5.71c0-17.82-.06-35.64.05-53.46,0-7.43,4-12.64,10.58-15.54,6.23-2.74,12.1-1.29,17.17,3.09,4.49,3.89,5.75,9.07,5.72,14.83-.1,17.16,0,34.31,0,51.47v5.3H191.9c0-23.31,1.1-46.34-.38-69.19-1-16.06-11.66-26.94-27-32-14.47-4.79-26.8-.41-37.14,10.38-.59.62-1.31,1.11-2.45,2.06ZM68.22,192V91.36h-33V192ZM51.48,71.92A20.42,20.42,0,0,0,71.92,51.65a20.64,20.64,0,0,0-20.39-20.4,20.7,20.7,0,0,0-20.26,20.1C31.06,62.32,40.45,71.88,51.48,71.92Z" transform="translate(-1 -1)"/><path class="cls-1" d="M20,1" transform="translate(-1 -1)"/><path class="cls-1" d="M1,20V1" transform="translate(-1 -1)"/><path class="cls-1" d="M1,207" transform="translate(-1 -1)"/><path class="cls-1" d="M20,226" transform="translate(-1 -1)"/><path class="cls-1" d="M124.9,91.37v11.71c1.14-1,1.86-1.44,2.45-2.06C137.69,90.23,150,85.85,164.49,90.64c15.37,5.09,26,16,27,32,1.48,22.85.38,45.88.38,69.19H158.37v-5.3c0-17.16-.07-34.31,0-51.47,0-5.76-1.23-10.94-5.72-14.83-5.07-4.38-10.94-5.83-17.17-3.09-6.61,2.9-10.54,8.11-10.58,15.54-.11,17.82-.05,35.64-.05,53.46v5.71H91.35V91.37Z" transform="translate(-1 -1)"/><path class="cls-1" d="M68.22,192h-33V91.36h33Z" transform="translate(-1 -1)"/><path class="cls-1" d="M51.48,71.92c-11,0-20.42-9.6-20.21-20.57a20.7,20.7,0,0,1,20.26-20.1,20.64,20.64,0,0,1,20.39,20.4A20.42,20.42,0,0,1,51.48,71.92Z" transform="translate(-1 -1)"/></svg>